<?xml version="1.0" encoding="UTF-8" standalone="no"?>
<svg width="568px" height="568px" viewBox="0 0 568 568" version="1.1">
    <title>dartsBoard</title>
    <defs></defs>
        <g id="dartsBoard" transform="translate(1.000000, 1.000000)">
            <path d="M283,566 C439.296584,566 566,439.296584 566,283 C566,126.703416 439.296584,0 283,0 C126.703416,0 0,126.703416 0,283 C0,439.296584 126.703416,566 283,566 Z" id="Oval-1" stroke="#FFFFFF" fill="#000000" sketch:type="MSShapeGroup"></path>
            <g id="20" transform="translate(239.000000, 4.000000)">
                <path class="full" d="M0,3.4453 L43.475,279.0003 L87.917,3.4663 C73.574,1.2013 58.874,0.0113 43.894,0.0113 C28.959,0.0113 14.302,1.1933 0,3.4453" fill="#1E1E1E" sketch:type="MSShapeGroup"></path>
                <path class="lower" d="M43.4751,279 L68.7431,122.343 C60.4981,121.032 52.0461,120.343 43.4331,120.343 C35.0351,120.343 26.7901,120.993 18.7431,122.24 L43.4751,279 Z" id="lower" fill="#1E1E1E" sketch:type="MSShapeGroup"></path>
                <path class="upper" d="M71.5303,105.0649 C62.3783,103.6089 52.9953,102.8429 43.4323,102.8429 C34.1073,102.8429 24.9513,103.5659 16.0153,104.9519 L2.7273,20.7329 C16.1403,18.6209 29.8863,17.5119 43.8933,17.5119 C57.9253,17.5119 71.6953,18.6249 85.1303,20.7449 L71.5303,105.0649 Z" id="upper" fill="#1E1E1E" sketch:type="MSShapeGroup"></path>
                <path class="double" d="M43.8936,17.5117 C57.9246,17.5117 71.6956,18.6247 85.1296,20.7447 L87.9166,3.4667 C73.5746,1.2017 58.8736,0.0117 43.8936,0.0117 C28.9586,0.0117 14.3016,1.1937 -0.0004,3.4457 L2.7276,20.7337 C16.1406,18.6207 29.8866,17.5117 43.8936,17.5117" id="double" fill="#B01800" sketch:type="MSShapeGroup"></path>
                <path class="triple" d="M43.4326,120.3428 C52.0456,120.3428 60.4976,121.0318 68.7436,122.3428 L71.5306,105.0648 C62.3776,103.6098 52.9956,102.8428 43.4326,102.8428 C34.1076,102.8428 24.9516,103.5668 16.0156,104.9518 L18.7426,122.2398 C26.7906,120.9928 35.0356,120.3428 43.4326,120.3428" id="triple" fill="#B01800" sketch:type="MSShapeGroup"></path>
                <text sketch:type="MSTextLayer" font-family="Monaco" font-size="48" font-weight="normal" fill="#FFFFFF">
                    <tspan x="15" y="86">20</tspan>
                </text>
            </g>
            <g id="1" transform="translate(326.107871, 150.827616) rotate(18.000000) translate(-326.107871, -150.827616) translate(282.107871, 10.827616)">
                <path class="full" d="M-7.95807864e-13,3.4453 L43.475,279.0003 L87.917,3.4663 C73.574,1.2013 58.874,0.0113 43.894,0.0113 C28.959,0.0113 14.302,1.1933 -7.95807864e-13,3.4453" fill="#D9D9D1" sketch:type="MSShapeGroup"></path>
                <path class="lower" d="M43.4751,279 L68.7431,122.343 C60.4981,121.032 52.0461,120.343 43.4331,120.343 C35.0351,120.343 26.7901,120.993 18.7431,122.24 L43.4751,279 Z" id="lower" fill="#D9D9D1" sketch:type="MSShapeGroup"></path>
                <path class="upper" d="M71.5303,105.0649 C62.3783,103.6089 52.9953,102.8429 43.4323,102.8429 C34.1073,102.8429 24.9513,103.5659 16.0153,104.9519 L2.7273,20.7329 C16.1403,18.6209 29.8863,17.5119 43.8933,17.5119 C57.9253,17.5119 71.6953,18.6249 85.1303,20.7449 L71.5303,105.0649 Z" id="upper" fill="#D9D9D1" sketch:type="MSShapeGroup"></path>
                <path class="double" d="M43.8936,17.5117 C57.9246,17.5117 71.6956,18.6247 85.1296,20.7447 L87.9166,3.4667 C73.5746,1.2017 58.8736,0.0117 43.8936,0.0117 C28.9586,0.0117 14.3016,1.1937 -0.0004,3.4457 L2.7276,20.7337 C16.1406,18.6207 29.8866,17.5117 43.8936,17.5117" id="double" fill="#00591E" sketch:type="MSShapeGroup"></path>
                <path class="triple" d="M43.4326,120.3428 C52.0456,120.3428 60.4976,121.0318 68.7436,122.3428 L71.5306,105.0648 C62.3776,103.6098 52.9956,102.8428 43.4326,102.8428 C34.1076,102.8428 24.9516,103.5668 16.0156,104.9518 L18.7426,122.2398 C26.7906,120.9928 35.0356,120.3428 43.4326,120.3428" id="triple" fill="#00591E" sketch:type="MSShapeGroup"></path>
                <text sketch:type="MSTextLayer" transform="translate(43.743100, 69.628469) rotate(3.000000) translate(-43.743100, -69.628469) " font-family="Monaco" font-size="48" font-weight="normal" fill="#FFFFFF">
                    <tspan x="29.2431" y="85.1284688">1</tspan>
                </text>
            </g>
            <g id="18" transform="translate(364.856659, 170.571110) rotate(36.000000) translate(-364.856659, -170.571110) translate(320.856659, 30.571110)">
                <path  class="full" d="M-5.68434189e-13,3.4453 L43.475,279.0003 L87.917,3.4663 C73.574,1.2013 58.874,0.0113 43.894,0.0113 C28.959,0.0113 14.302,1.1933 -5.68434189e-13,3.4453" fill="#1E1E1E" sketch:type="MSShapeGroup"></path>
                <path class="lower" d="M43.4751,279 L68.7431,122.343 C60.4981,121.032 52.0461,120.343 43.4331,120.343 C35.0351,120.343 26.7901,120.993 18.7431,122.24 L43.4751,279 Z" id="lower" fill="#1E1E1E" sketch:type="MSShapeGroup"></path>
                <path class="upper" d="M71.5303,105.0649 C62.3783,103.6089 52.9953,102.8429 43.4323,102.8429 C34.1073,102.8429 24.9513,103.5659 16.0153,104.9519 L2.7273,20.7329 C16.1403,18.6209 29.8863,17.5119 43.8933,17.5119 C57.9253,17.5119 71.6953,18.6249 85.1303,20.7449 L71.5303,105.0649 Z" id="upper" fill="#1E1E1E" sketch:type="MSShapeGroup"></path>
                <path class="double" d="M43.8936,17.5117 C57.9246,17.5117 71.6956,18.6247 85.1296,20.7447 L87.9166,3.4667 C73.5746,1.2017 58.8736,0.0117 43.8936,0.0117 C28.9586,0.0117 14.3016,1.1937 -0.000400000001,3.4457 L2.7276,20.7337 C16.1406,18.6207 29.8866,17.5117 43.8936,17.5117" id="double" fill="#B01800" sketch:type="MSShapeGroup"></path>
                <path class="triple" d="M43.4326,120.3428 C52.0456,120.3428 60.4976,121.0318 68.7436,122.3428 L71.5306,105.0648 C62.3776,103.6098 52.9956,102.8428 43.4326,102.8428 C34.1076,102.8428 24.9516,103.5668 16.0156,104.9518 L18.7426,122.2398 C26.7906,120.9928 35.0356,120.3428 43.4326,120.3428" id="triple" fill="#B01800" sketch:type="MSShapeGroup"></path>
                <text sketch:type="MSTextLayer" font-family="Monaco" font-size="48" font-weight="normal" fill="#FFFFFF">
                    <tspan x="14" y="86">18</tspan>
                </text>
            </g>
            <g id="4" transform="translate(395.857871, 201.503957) rotate(54.000000) translate(-395.857871, -201.503957) translate(351.857871, 61.503957)">
                <path  class="full" d="M2.27373675e-13,3.4453 L43.475,279.0003 L87.917,3.4663 C73.574,1.2013 58.874,0.0113 43.894,0.0113 C28.959,0.0113 14.302,1.1933 2.27373675e-13,3.4453" fill="#D9D9D1" sketch:type="MSShapeGroup"></path>
                <path class="lower" d="M43.4751,279 L68.7431,122.343 C60.4981,121.032 52.0461,120.343 43.4331,120.343 C35.0351,120.343 26.7901,120.993 18.7431,122.24 L43.4751,279 Z" id="lower" fill="#D9D9D1" sketch:type="MSShapeGroup"></path>
                <path class="upper" d="M71.5303,105.0649 C62.3783,103.6089 52.9953,102.8429 43.4323,102.8429 C34.1073,102.8429 24.9513,103.5659 16.0153,104.9519 L2.7273,20.7329 C16.1403,18.6209 29.8863,17.5119 43.8933,17.5119 C57.9253,17.5119 71.6953,18.6249 85.1303,20.7449 L71.5303,105.0649 Z" id="upper" fill="#D9D9D1" sketch:type="MSShapeGroup"></path>
                <path class="double" d="M43.8936,17.5117 C57.9246,17.5117 71.6956,18.6247 85.1296,20.7447 L87.9166,3.4667 C73.5746,1.2017 58.8736,0.0117 43.8936,0.0117 C28.9586,0.0117 14.3016,1.1937 -0.0004,3.4457 L2.7276,20.7337 C16.1406,18.6207 29.8866,17.5117 43.8936,17.5117" id="double" fill="#00591E" sketch:type="MSShapeGroup"></path>
                <path class="triple" d="M43.4326,120.3428 C52.0456,120.3428 60.4976,121.0318 68.7436,122.3428 L71.5306,105.0648 C62.3776,103.6098 52.9956,102.8428 43.4326,102.8428 C34.1076,102.8428 24.9516,103.5668 16.0156,104.9518 L18.7426,122.2398 C26.7906,120.9928 35.0356,120.3428 43.4326,120.3428" id="triple" fill="#00591E" sketch:type="MSShapeGroup"></path>
                <text sketch:type="MSTextLayer" transform="translate(43.743100, 69.628469) rotate(3.000000) translate(-43.743100, -69.628469) " font-family="Monaco" font-size="48" font-weight="normal" fill="#FFFFFF">
                    <tspan x="29.2431" y="85.1284688">4</tspan>
                </text>
            </g>
            <g id="13" transform="translate(415.533000, 240.321110) rotate(72.000000) translate(-415.533000, -240.321110) translate(371.533000, 100.321110)">
                <path  class="full" d="M-3.41060513e-13,3.4453 L43.475,279.0003 L87.917,3.4663 C73.574,1.2013 58.874,0.0113 43.894,0.0113 C28.959,0.0113 14.302,1.1933 -3.41060513e-13,3.4453"fill="#1E1E1E" sketch:type="MSShapeGroup"></path>
                <path class="lower" d="M43.4751,279 L68.7431,122.343 C60.4981,121.032 52.0461,120.343 43.4331,120.343 C35.0351,120.343 26.7901,120.993 18.7431,122.24 L43.4751,279 Z" id="lower" fill="#1E1E1E" sketch:type="MSShapeGroup"></path>
                <path class="upper" d="M71.5303,105.0649 C62.3783,103.6089 52.9953,102.8429 43.4323,102.8429 C34.1073,102.8429 24.9513,103.5659 16.0153,104.9519 L2.7273,20.7329 C16.1403,18.6209 29.8863,17.5119 43.8933,17.5119 C57.9253,17.5119 71.6953,18.6249 85.1303,20.7449 L71.5303,105.0649 Z" id="upper" fill="#1E1E1E" sketch:type="MSShapeGroup"></path>
                <path class="double" d="M43.8936,17.5117 C57.9246,17.5117 71.6956,18.6247 85.1296,20.7447 L87.9166,3.4667 C73.5746,1.2017 58.8736,0.0117 43.8936,0.0117 C28.9586,0.0117 14.3016,1.1937 -0.0004,3.4457 L2.7276,20.7337 C16.1406,18.6207 29.8866,17.5117 43.8936,17.5117" id="double" fill="#B01800" sketch:type="MSShapeGroup"></path>
                <path class="triple" d="M43.4326,120.3428 C52.0456,120.3428 60.4976,121.0318 68.7436,122.3428 L71.5306,105.0648 C62.3776,103.6098 52.9956,102.8428 43.4326,102.8428 C34.1076,102.8428 24.9516,103.5668 16.0156,104.9518 L18.7426,122.2398 C26.7906,120.9928 35.0356,120.3428 43.4326,120.3428" id="triple" fill="#B01800" sketch:type="MSShapeGroup"></path>
                <text sketch:type="MSTextLayer" font-family="Monaco" font-size="48" font-weight="normal" fill="#FFFFFF">
                    <tspan x="14" y="86">13</tspan>
                </text>
            </g>
            <g id="6" transform="translate(422.404508, 283.206107) rotate(90.000000) translate(-422.404508, -283.206107) translate(378.404508, 143.206107)">
                <path class="full"  d="M4.54747351e-13,3.4453 L43.475,279.0003 L87.917,3.4663 C73.574,1.2013 58.874,0.0113 43.894,0.0113 C28.959,0.0113 14.302,1.1933 4.54747351e-13,3.4453" fill="#D9D9D1" sketch:type="MSShapeGroup"></path>
                <path class="lower" d="M43.4751,279 L68.7431,122.343 C60.4981,121.032 52.0461,120.343 43.4331,120.343 C35.0351,120.343 26.7901,120.993 18.7431,122.24 L43.4751,279 Z" id="lower" fill="#D9D9D1" sketch:type="MSShapeGroup"></path>
                <path class="upper" d="M71.5303,105.0649 C62.3783,103.6089 52.9953,102.8429 43.4323,102.8429 C34.1073,102.8429 24.9513,103.5659 16.0153,104.9519 L2.7273,20.7329 C16.1403,18.6209 29.8863,17.5119 43.8933,17.5119 C57.9253,17.5119 71.6953,18.6249 85.1303,20.7449 L71.5303,105.0649 Z" id="upper" fill="#D9D9D1" sketch:type="MSShapeGroup"></path>
                <path class="double" d="M43.8936,17.5117 C57.9246,17.5117 71.6956,18.6247 85.1296,20.7447 L87.9166,3.4667 C73.5746,1.2017 58.8736,0.0117 43.8936,0.0117 C28.9586,0.0117 14.3016,1.1937 -0.0004,3.4457 L2.7276,20.7337 C16.1406,18.6207 29.8866,17.5117 43.8936,17.5117" id="double" fill="#00591E" sketch:type="MSShapeGroup"></path>
                <path class="triple" d="M43.4326,120.3428 C52.0456,120.3428 60.4976,121.0318 68.7436,122.3428 L71.5306,105.0648 C62.3776,103.6098 52.9956,102.8428 43.4326,102.8428 C34.1076,102.8428 24.9516,103.5668 16.0156,104.9518 L18.7426,122.2398 C26.7906,120.9928 35.0356,120.3428 43.4326,120.3428" id="triple" fill="#00591E" sketch:type="MSShapeGroup"></path>
                <text sketch:type="MSTextLayer" transform="translate(43.743100, 69.628469) rotate(3.000000) translate(-43.743100, -69.628469) " font-family="Monaco" font-size="48" font-weight="normal" fill="#FFFFFF">
                    <tspan x="29.2431" y="85.1284688">6</tspan>
                </text>
            </g>
            <g id="10" transform="translate(415.533000, 326.227834) rotate(108.000000) translate(-415.533000, -326.227834) translate(371.533000, 186.227834)">
                <path  class="full" d="M4.54747351e-13,3.4453 L43.475,279.0003 L87.917,3.4663 C73.574,1.2013 58.874,0.0113 43.894,0.0113 C28.959,0.0113 14.302,1.1933 4.54747351e-13,3.4453"  fill="#1E1E1E" sketch:type="MSShapeGroup"></path>
                <path class="lower" d="M43.4751,279 L68.7431,122.343 C60.4981,121.032 52.0461,120.343 43.4331,120.343 C35.0351,120.343 26.7901,120.993 18.7431,122.24 L43.4751,279 Z" id="lower" fill="#1E1E1E" sketch:type="MSShapeGroup"></path>
                <path class="upper" d="M71.5303,105.0649 C62.3783,103.6089 52.9953,102.8429 43.4323,102.8429 C34.1073,102.8429 24.9513,103.5659 16.0153,104.9519 L2.7273,20.7329 C16.1403,18.6209 29.8863,17.5119 43.8933,17.5119 C57.9253,17.5119 71.6953,18.6249 85.1303,20.7449 L71.5303,105.0649 Z" id="upper" fill="#1E1E1E" sketch:type="MSShapeGroup"></path>
                <path class="double" d="M43.8936,17.5117 C57.9246,17.5117 71.6956,18.6247 85.1296,20.7447 L87.9166,3.4667 C73.5746,1.2017 58.8736,0.0117 43.8936,0.0117 C28.9586,0.0117 14.3016,1.1937 -0.000400000001,3.4457 L2.7276,20.7337 C16.1406,18.6207 29.8866,17.5117 43.8936,17.5117" id="double" fill="#B01800" sketch:type="MSShapeGroup"></path>
                <path class="triple" d="M43.4326,120.3428 C52.0456,120.3428 60.4976,121.0318 68.7436,122.3428 L71.5306,105.0648 C62.3776,103.6098 52.9956,102.8428 43.4326,102.8428 C34.1076,102.8428 24.9516,103.5668 16.0156,104.9518 L18.7426,122.2398 C26.7906,120.9928 35.0356,120.3428 43.4326,120.3428" id="triple" fill="#B01800" sketch:type="MSShapeGroup"></path>
                <text sketch:type="MSTextLayer" font-family="Monaco" font-size="48" font-weight="normal" fill="#FFFFFF">
                    <tspan x="14" y="86">10</tspan>
                </text>
            </g>
            <g id="15" transform="translate(395.762379, 365.202150) rotate(126.000000) translate(-395.762379, -365.202150) translate(351.762379, 225.202150)">
                <path  class="full" d="M-6.82121026e-13,3.4453 L43.475,279.0003 L87.917,3.4663 C73.574,1.2013 58.874,0.0113 43.894,0.0113 C28.959,0.0113 14.302,1.1933 -6.82121026e-13,3.4453" fill="#D9D9D1" sketch:type="MSShapeGroup"></path>
                <path class="lower" d="M43.4751,279 L68.7431,122.343 C60.4981,121.032 52.0461,120.343 43.4331,120.343 C35.0351,120.343 26.7901,120.993 18.7431,122.24 L43.4751,279 Z" id="lower" fill="#D9D9D1" sketch:type="MSShapeGroup"></path>
                <path class="upper" d="M71.5303,105.0649 C62.3783,103.6089 52.9953,102.8429 43.4323,102.8429 C34.1073,102.8429 24.9513,103.5659 16.0153,104.9519 L2.7273,20.7329 C16.1403,18.6209 29.8863,17.5119 43.8933,17.5119 C57.9253,17.5119 71.6953,18.6249 85.1303,20.7449 L71.5303,105.0649 Z" id="upper" fill="#D9D9D1" sketch:type="MSShapeGroup"></path>
                <path class="double" d="M43.8936,17.5117 C57.9246,17.5117 71.6956,18.6247 85.1296,20.7447 L87.9166,3.4667 C73.5746,1.2017 58.8736,0.0117 43.8936,0.0117 C28.9586,0.0117 14.3016,1.1937 -0.0004,3.4457 L2.7276,20.7337 C16.1406,18.6207 29.8866,17.5117 43.8936,17.5117" id="double" fill="#00591E" sketch:type="MSShapeGroup"></path>
                <path class="triple" d="M43.4326,120.3428 C52.0456,120.3428 60.4976,121.0318 68.7436,122.3428 L71.5306,105.0648 C62.3776,103.6098 52.9956,102.8428 43.4326,102.8428 C34.1076,102.8428 24.9516,103.5668 16.0156,104.9518 L18.7426,122.2398 C26.7906,120.9928 35.0356,120.3428 43.4326,120.3428" id="triple" fill="#00591E" sketch:type="MSShapeGroup"></path>
                <text sketch:type="MSTextLayer" font-family="Monaco" font-size="48" font-weight="normal" fill="#FFFFFF">
                    <tspan x="14" y="86">15</tspan>
                </text>
            </g>
            <g id="2" transform="translate(365.219930, 395.477834) rotate(144.000000) translate(-365.219930, -395.477834) translate(321.219930, 255.477834)">
                <path  class="full" d="M-1.87583282e-12,3.4453 L43.475,279.0003 L87.917,3.4663 C73.574,1.2013 58.874,0.0113 43.894,0.0113 C28.959,0.0113 14.302,1.1933 -1.87583282e-12,3.4453"  fill="#1E1E1E" sketch:type="MSShapeGroup"></path>
                <path class="lower" d="M43.4751,279 L68.7431,122.343 C60.4981,121.032 52.0461,120.343 43.4331,120.343 C35.0351,120.343 26.7901,120.993 18.7431,122.24 L43.4751,279 Z" id="lower" fill="#1E1E1E" sketch:type="MSShapeGroup"></path>
                <path class="upper" d="M71.5303,105.0649 C62.3783,103.6089 52.9953,102.8429 43.4323,102.8429 C34.1073,102.8429 24.9513,103.5659 16.0153,104.9519 L2.7273,20.7329 C16.1403,18.6209 29.8863,17.5119 43.8933,17.5119 C57.9253,17.5119 71.6953,18.6249 85.1303,20.7449 L71.5303,105.0649 Z" id="upper" fill="#1E1E1E" sketch:type="MSShapeGroup"></path>
                <path class="double" d="M43.8936,17.5117 C57.9246,17.5117 71.6956,18.6247 85.1296,20.7447 L87.9166,3.4667 C73.5746,1.2017 58.8736,0.0117 43.8936,0.0117 C28.9586,0.0117 14.3016,1.1937 -0.000400000002,3.4457 L2.7276,20.7337 C16.1406,18.6207 29.8866,17.5117 43.8936,17.5117" id="double" fill="#B01800" sketch:type="MSShapeGroup"></path>
                <path class="triple" d="M43.4326,120.3428 C52.0456,120.3428 60.4976,121.0318 68.7436,122.3428 L71.5306,105.0648 C62.3776,103.6098 52.9956,102.8428 43.4326,102.8428 C34.1076,102.8428 24.9516,103.5668 16.0156,104.9518 L18.7426,122.2398 C26.7906,120.9928 35.0356,120.3428 43.4326,120.3428" id="triple" fill="#B01800" sketch:type="MSShapeGroup"></path>
                <text sketch:type="MSTextLayer" transform="translate(43.958500, 69.856555) rotate(2.000000) translate(-43.958500, -69.856555) " font-family="Monaco" font-size="48" font-weight="normal" fill="#FFFFFF">
                    <tspan x="29.4585" y="85.3565554">2</tspan>
                </text>
            </g>
            <g id="17" transform="translate(326.080744, 415.446856) rotate(162.000000) translate(-326.080744, -415.446856) translate(282.080744, 275.446856)">
                <path  class="full" d="M1.47792889e-12,3.4453 L43.475,279.0003 L87.917,3.4663 C73.574,1.2013 58.874,0.0113 43.894,0.0113 C28.959,0.0113 14.302,1.1933 1.47792889e-12,3.4453" fill="#D9D9D1" sketch:type="MSShapeGroup"></path>
                <path class="lower" d="M43.4751,279 L68.7431,122.343 C60.4981,121.032 52.0461,120.343 43.4331,120.343 C35.0351,120.343 26.7901,120.993 18.7431,122.24 L43.4751,279 Z" id="lower" fill="#D9D9D1" sketch:type="MSShapeGroup"></path>
                <path class="upper" d="M71.5303,105.0649 C62.3783,103.6089 52.9953,102.8429 43.4323,102.8429 C34.1073,102.8429 24.9513,103.5659 16.0153,104.9519 L2.7273,20.7329 C16.1403,18.6209 29.8863,17.5119 43.8933,17.5119 C57.9253,17.5119 71.6953,18.6249 85.1303,20.7449 L71.5303,105.0649 Z" id="upper" fill="#D9D9D1" sketch:type="MSShapeGroup"></path>
                <path class="double" d="M43.8936,17.5117 C57.9246,17.5117 71.6956,18.6247 85.1296,20.7447 L87.9166,3.4667 C73.5746,1.2017 58.8736,0.0117 43.8936,0.0117 C28.9586,0.0117 14.3016,1.1937 -0.0004,3.4457 L2.7276,20.7337 C16.1406,18.6207 29.8866,17.5117 43.8936,17.5117" id="double" fill="#00591E" sketch:type="MSShapeGroup"></path>
                <path class="triple" d="M43.4326,120.3428 C52.0456,120.3428 60.4976,121.0318 68.7436,122.3428 L71.5306,105.0648 C62.3776,103.6098 52.9956,102.8428 43.4326,102.8428 C34.1076,102.8428 24.9516,103.5668 16.0156,104.9518 L18.7426,122.2398 C26.7906,120.9928 35.0356,120.3428 43.4326,120.3428" id="triple" fill="#00591E" sketch:type="MSShapeGroup"></path>
                <text sketch:type="MSTextLayer" font-family="Monaco" font-size="48" font-weight="normal" fill="#FFFFFF">
                    <tspan x="14" y="86">17</tspan>
                </text>
            </g>
            <g id="3" transform="translate(283.613271, 422.318364) rotate(180.000000) translate(-283.613271, -422.318364) translate(239.613271, 282.318364)">
                <path  class="full" d="M-3.41060513e-13,3.4453 L43.475,279.0003 L87.917,3.4663 C73.574,1.2013 58.874,0.0113 43.894,0.0113 C28.959,0.0113 14.302,1.1933 -3.41060513e-13,3.4453" fill="#1E1E1E" sketch:type="MSShapeGroup"></path>
                <path class="lower" d="M43.4751,279 L68.7431,122.343 C60.4981,121.032 52.0461,120.343 43.4331,120.343 C35.0351,120.343 26.7901,120.993 18.7431,122.24 L43.4751,279 Z" id="lower" fill="#1E1E1E" sketch:type="MSShapeGroup"></path>
                <path class="upper" d="M71.5303,105.0649 C62.3783,103.6089 52.9953,102.8429 43.4323,102.8429 C34.1073,102.8429 24.9513,103.5659 16.0153,104.9519 L2.7273,20.7329 C16.1403,18.6209 29.8863,17.5119 43.8933,17.5119 C57.9253,17.5119 71.6953,18.6249 85.1303,20.7449 L71.5303,105.0649 Z" id="upper" fill="#1E1E1E" sketch:type="MSShapeGroup"></path>
                <path class="double" d="M43.8936,17.5117 C57.9246,17.5117 71.6956,18.6247 85.1296,20.7447 L87.9166,3.4667 C73.5746,1.2017 58.8736,0.0117 43.8936,0.0117 C28.9586,0.0117 14.3016,1.1937 -0.000400000001,3.4457 L2.7276,20.7337 C16.1406,18.6207 29.8866,17.5117 43.8936,17.5117" id="double" fill="#B01800" sketch:type="MSShapeGroup"></path>
                <path class="triple" d="M43.4326,120.3428 C52.0456,120.3428 60.4976,121.0318 68.7436,122.3428 L71.5306,105.0648 C62.3776,103.6098 52.9956,102.8428 43.4326,102.8428 C34.1076,102.8428 24.9516,103.5668 16.0156,104.9518 L18.7426,122.2398 C26.7906,120.9928 35.0356,120.3428 43.4326,120.3428" id="triple" fill="#B01800" sketch:type="MSShapeGroup"></path>
                <text sketch:type="MSTextLayer" transform="translate(44.958500, 69.856555) rotate(2.000000) translate(-44.958500, -69.856555) " font-family="Monaco" font-size="48" font-weight="normal" fill="#FFFFFF">
                    <tspan x="30.4585" y="85.3565554">3</tspan>
                </text>
            </g>
            <g id="19" transform="translate(240.174019, 415.446856) rotate(198.000000) translate(-240.174019, -415.446856) translate(196.174019, 275.446856)">
                <path  class="full" d="M2.95585778e-12,3.4453 L43.475,279.0003 L87.917,3.4663 C73.574,1.2013 58.874,0.0113 43.894,0.0113 C28.959,0.0113 14.302,1.1933 2.95585778e-12,3.4453"  fill="#D9D9D1" sketch:type="MSShapeGroup"></path>
                <path class="lower" d="M43.4751,279 L68.7431,122.343 C60.4981,121.032 52.0461,120.343 43.4331,120.343 C35.0351,120.343 26.7901,120.993 18.7431,122.24 L43.4751,279 Z" id="lower" fill="#D9D9D1" sketch:type="MSShapeGroup"></path>
                <path class="upper" d="M71.5303,105.0649 C62.3783,103.6089 52.9953,102.8429 43.4323,102.8429 C34.1073,102.8429 24.9513,103.5659 16.0153,104.9519 L2.7273,20.7329 C16.1403,18.6209 29.8863,17.5119 43.8933,17.5119 C57.9253,17.5119 71.6953,18.6249 85.1303,20.7449 L71.5303,105.0649 Z" id="upper" fill="#D9D9D1" sketch:type="MSShapeGroup"></path>
                <path class="double" d="M43.8936,17.5117 C57.9246,17.5117 71.6956,18.6247 85.1296,20.7447 L87.9166,3.4667 C73.5746,1.2017 58.8736,0.0117 43.8936,0.0117 C28.9586,0.0117 14.3016,1.1937 -0.000399999998,3.4457 L2.7276,20.7337 C16.1406,18.6207 29.8866,17.5117 43.8936,17.5117" id="double" fill="#00591E" sketch:type="MSShapeGroup"></path>
                <path class="triple" d="M43.4326,120.3428 C52.0456,120.3428 60.4976,121.0318 68.7436,122.3428 L71.5306,105.0648 C62.3776,103.6098 52.9956,102.8428 43.4326,102.8428 C34.1076,102.8428 24.9516,103.5668 16.0156,104.9518 L18.7426,122.2398 C26.7906,120.9928 35.0356,120.3428 43.4326,120.3428" id="triple" fill="#00591E" sketch:type="MSShapeGroup"></path>
                <text sketch:type="MSTextLayer" font-family="Monaco" font-size="48" font-weight="normal" fill="#FFFFFF">
                    <tspan x="15" y="86">19</tspan>
                </text>
            </g>
            <g id="7" transform="translate(201.911121, 395.771727) rotate(216.000000) translate(-201.911121, -395.771727) translate(157.911121, 255.771727)">
                <path  class="full" d="M-5.68434189e-13,3.4453 L43.475,279.0003 L87.917,3.4663 C73.574,1.2013 58.874,0.0113 43.894,0.0113 C28.959,0.0113 14.302,1.1933 -5.68434189e-13,3.4453"  fill="#1E1E1E" sketch:type="MSShapeGroup"></path>
                <path class="lower" d="M43.4751,279 L68.7431,122.343 C60.4981,121.032 52.0461,120.343 43.4331,120.343 C35.0351,120.343 26.7901,120.993 18.7431,122.24 L43.4751,279 Z" id="lower" fill="#1E1E1E" sketch:type="MSShapeGroup"></path>
                <path class="upper" d="M71.5303,105.0649 C62.3783,103.6089 52.9953,102.8429 43.4323,102.8429 C34.1073,102.8429 24.9513,103.5659 16.0153,104.9519 L2.7273,20.7329 C16.1403,18.6209 29.8863,17.5119 43.8933,17.5119 C57.9253,17.5119 71.6953,18.6249 85.1303,20.7449 L71.5303,105.0649 Z" id="upper" fill="#1E1E1E" sketch:type="MSShapeGroup"></path>
                <path class="double" d="M43.8936,17.5117 C57.9246,17.5117 71.6956,18.6247 85.1296,20.7447 L87.9166,3.4667 C73.5746,1.2017 58.8736,0.0117 43.8936,0.0117 C28.9586,0.0117 14.3016,1.1937 -0.000400000001,3.4457 L2.7276,20.7337 C16.1406,18.6207 29.8866,17.5117 43.8936,17.5117" id="double" fill="#B01800" sketch:type="MSShapeGroup"></path>
                <path class="triple" d="M43.4326,120.3428 C52.0456,120.3428 60.4976,121.0318 68.7436,122.3428 L71.5306,105.0648 C62.3776,103.6098 52.9956,102.8428 43.4326,102.8428 C34.1076,102.8428 24.9516,103.5668 16.0156,104.9518 L18.7426,122.2398 C26.7906,120.9928 35.0356,120.3428 43.4326,120.3428" id="triple" fill="#B01800" sketch:type="MSShapeGroup"></path>
                <text sketch:type="MSTextLayer" transform="translate(43.743100, 69.856555) rotate(2.000000) translate(-43.743100, -69.856555) " font-family="Monaco" font-size="48" font-weight="normal" fill="#FFFFFF">
                    <tspan x="29.2431" y="85.3565554">7</tspan>
                </text>
            </g>
            <g id="16" transform="translate(170.855655, 364.702150) rotate(234.000000) translate(-170.855655, -364.702150) translate(126.855655, 224.702150)">
                <path class="full"  d="M1.13686838e-12,3.4453 L43.475,279.0003 L87.917,3.4663 C73.574,1.2013 58.874,0.0113 43.894,0.0113 C28.959,0.0113 14.302,1.1933 1.13686838e-12,3.4453" fill="#D9D9D1" sketch:type="MSShapeGroup"></path>
                <path class="lower" d="M43.4751,279 L68.7431,122.343 C60.4981,121.032 52.0461,120.343 43.4331,120.343 C35.0351,120.343 26.7901,120.993 18.7431,122.24 L43.4751,279 Z" id="lower" fill="#D9D9D1" sketch:type="MSShapeGroup"></path>
                <path class="upper" d="M71.5303,105.0649 C62.3783,103.6089 52.9953,102.8429 43.4323,102.8429 C34.1073,102.8429 24.9513,103.5659 16.0153,104.9519 L2.7273,20.7329 C16.1403,18.6209 29.8863,17.5119 43.8933,17.5119 C57.9253,17.5119 71.6953,18.6249 85.1303,20.7449 L71.5303,105.0649 Z" id="upper" fill="#D9D9D1" sketch:type="MSShapeGroup"></path>
                <path class="double" d="M43.8936,17.5117 C57.9246,17.5117 71.6956,18.6247 85.1296,20.7447 L87.9166,3.4667 C73.5746,1.2017 58.8736,0.0117 43.8936,0.0117 C28.9586,0.0117 14.3016,1.1937 -0.0004,3.4457 L2.7276,20.7337 C16.1406,18.6207 29.8866,17.5117 43.8936,17.5117" id="double" fill="#00591E" sketch:type="MSShapeGroup"></path>
                <path class="triple" d="M43.4326,120.3428 C52.0456,120.3428 60.4976,121.0318 68.7436,122.3428 L71.5306,105.0648 C62.3776,103.6098 52.9956,102.8428 43.4326,102.8428 C34.1076,102.8428 24.9516,103.5668 16.0156,104.9518 L18.7426,122.2398 C26.7906,120.9928 35.0356,120.3428 43.4326,120.3428" id="triple" fill="#00591E" sketch:type="MSShapeGroup"></path>
                <text sketch:type="MSTextLayer" font-family="Monaco" font-size="48" font-weight="normal" fill="#FFFFFF">
                    <tspan x="14" y="86">16</tspan>
                </text>
            </g>
            <g id="8" transform="translate(151.348051, 326.703362) rotate(252.000000) translate(-151.348051, -326.703362) translate(107.348051, 186.703362)">
                <path  class="full" d="M-1.13686838e-12,3.4453 L43.475,279.0003 L87.917,3.4663 C73.574,1.2013 58.874,0.0113 43.894,0.0113 C28.959,0.0113 14.302,1.1933 -1.13686838e-12,3.4453"  fill="#1E1E1E" sketch:type="MSShapeGroup"></path>
                <path class="lower" d="M43.4751,279 L68.7431,122.343 C60.4981,121.032 52.0461,120.343 43.4331,120.343 C35.0351,120.343 26.7901,120.993 18.7431,122.24 L43.4751,279 Z" id="lower" fill="#1E1E1E" sketch:type="MSShapeGroup"></path>
                <path class="upper" d="M71.5303,105.0649 C62.3783,103.6089 52.9953,102.8429 43.4323,102.8429 C34.1073,102.8429 24.9513,103.5659 16.0153,104.9519 L2.7273,20.7329 C16.1403,18.6209 29.8863,17.5119 43.8933,17.5119 C57.9253,17.5119 71.6953,18.6249 85.1303,20.7449 L71.5303,105.0649 Z" id="upper" fill="#1E1E1E" sketch:type="MSShapeGroup"></path>
                <path class="double" d="M43.8936,17.5117 C57.9246,17.5117 71.6956,18.6247 85.1296,20.7447 L87.9166,3.4667 C73.5746,1.2017 58.8736,0.0117 43.8936,0.0117 C28.9586,0.0117 14.3016,1.1937 -0.000400000001,3.4457 L2.7276,20.7337 C16.1406,18.6207 29.8866,17.5117 43.8936,17.5117" id="double" fill="#B01800" sketch:type="MSShapeGroup"></path>
                <path class="triple" d="M43.4326,120.3428 C52.0456,120.3428 60.4976,121.0318 68.7436,122.3428 L71.5306,105.0648 C62.3776,103.6098 52.9956,102.8428 43.4326,102.8428 C34.1076,102.8428 24.9516,103.5668 16.0156,104.9518 L18.7426,122.2398 C26.7906,120.9928 35.0356,120.3428 43.4326,120.3428" id="triple" fill="#B01800" sketch:type="MSShapeGroup"></path>
                <text sketch:type="MSTextLayer" transform="translate(43.743100, 69.856555) rotate(2.000000) translate(-43.743100, -69.856555) " font-family="Monaco" font-size="48" font-weight="normal" fill="#FFFFFF">
                    <tspan x="29.2431" y="85.3565554">8</tspan>
                </text>
            </g>
            <g id="11" transform="translate(144.602910, 282.904508) rotate(-90.000000) translate(-144.602910, -282.904508) translate(100.602910, 142.904508)">
                <path  class="full" d="M1.25055521e-12,3.4453 L43.475,279.0003 L87.917,3.4663 C73.574,1.2013 58.874,0.0113 43.894,0.0113 C28.959,0.0113 14.302,1.1933 1.25055521e-12,3.4453"  sketch:type="MSShapeGroup"></path>
                <path class="lower" d="M43.4751,279 L68.7431,122.343 C60.4981,121.032 52.0461,120.343 43.4331,120.343 C35.0351,120.343 26.7901,120.993 18.7431,122.24 L43.4751,279 Z" id="lower" fill="#D9D9D1" sketch:type="MSShapeGroup"></path>
                <path class="upper" d="M71.5303,105.0649 C62.3783,103.6089 52.9953,102.8429 43.4323,102.8429 C34.1073,102.8429 24.9513,103.5659 16.0153,104.9519 L2.7273,20.7329 C16.1403,18.6209 29.8863,17.5119 43.8933,17.5119 C57.9253,17.5119 71.6953,18.6249 85.1303,20.7449 L71.5303,105.0649 Z" id="upper" fill="#D9D9D1" sketch:type="MSShapeGroup"></path>
                <path class="double" d="M43.8936,17.5117 C57.9246,17.5117 71.6956,18.6247 85.1296,20.7447 L87.9166,3.4667 C73.5746,1.2017 58.8736,0.0117 43.8936,0.0117 C28.9586,0.0117 14.3016,1.1937 -0.0004,3.4457 L2.7276,20.7337 C16.1406,18.6207 29.8866,17.5117 43.8936,17.5117" id="double" fill="#00591E" sketch:type="MSShapeGroup"></path>
                <path class="triple" d="M43.4326,120.3428 C52.0456,120.3428 60.4976,121.0318 68.7436,122.3428 L71.5306,105.0648 C62.3776,103.6098 52.9956,102.8428 43.4326,102.8428 C34.1076,102.8428 24.9516,103.5668 16.0156,104.9518 L18.7426,122.2398 C26.7906,120.9928 35.0356,120.3428 43.4326,120.3428" id="triple" fill="#00591E" sketch:type="MSShapeGroup"></path>
                <text sketch:type="MSTextLayer" font-family="Monaco" font-size="48" font-weight="normal" fill="#FFFFFF">
                    <tspan x="14" y="86">11</tspan>
                </text>
            </g>
            <g id="14" transform="translate(151.139288, 240.321110) rotate(-72.000000) translate(-151.139288, -240.321110) translate(107.139288, 100.321110)">
                <path  class="full" d="M-5.68434189e-13,3.4453 L43.475,279.0003 L87.917,3.4663 C73.574,1.2013 58.874,0.0113 43.894,0.0113 C28.959,0.0113 14.302,1.1933 -5.68434189e-13,3.4453"  fill="#1E1E1E" sketch:type="MSShapeGroup"></path>
                <path class="lower" d="M43.4751,279 L68.7431,122.343 C60.4981,121.032 52.0461,120.343 43.4331,120.343 C35.0351,120.343 26.7901,120.993 18.7431,122.24 L43.4751,279 Z" id="lower" fill="#1E1E1E" sketch:type="MSShapeGroup"></path>
                <path class="upper" d="M71.5303,105.0649 C62.3783,103.6089 52.9953,102.8429 43.4323,102.8429 C34.1073,102.8429 24.9513,103.5659 16.0153,104.9519 L2.7273,20.7329 C16.1403,18.6209 29.8863,17.5119 43.8933,17.5119 C57.9253,17.5119 71.6953,18.6249 85.1303,20.7449 L71.5303,105.0649 Z" id="upper" fill="#1E1E1E" sketch:type="MSShapeGroup"></path>
                <path class="double" d="M43.8936,17.5117 C57.9246,17.5117 71.6956,18.6247 85.1296,20.7447 L87.9166,3.4667 C73.5746,1.2017 58.8736,0.0117 43.8936,0.0117 C28.9586,0.0117 14.3016,1.1937 -0.000400000001,3.4457 L2.7276,20.7337 C16.1406,18.6207 29.8866,17.5117 43.8936,17.5117" id="double" fill="#B01800" sketch:type="MSShapeGroup"></path>
                <path class="triple" d="M43.4326,120.3428 C52.0456,120.3428 60.4976,121.0318 68.7436,122.3428 L71.5306,105.0648 C62.3776,103.6098 52.9956,102.8428 43.4326,102.8428 C34.1076,102.8428 24.9516,103.5668 16.0156,104.9518 L18.7426,122.2398 C26.7906,120.9928 35.0356,120.3428 43.4326,120.3428" id="triple" fill="#B01800" sketch:type="MSShapeGroup"></path>
                <text sketch:type="MSTextLayer" font-family="Monaco" font-size="48" font-weight="normal" fill="#FFFFFF">
                    <tspan x="16" y="86">14</tspan>
                </text>
            </g>
            <g id="9" transform="translate(171.046638, 201.210065) rotate(-54.000000) translate(-171.046638, -201.210065) translate(127.046638, 61.210065)">
                <path  class="full" d="M1.70530257e-13,3.4453 L43.475,279.0003 L87.917,3.4663 C73.574,1.2013 58.874,0.0113 43.894,0.0113 C28.959,0.0113 14.302,1.1933 1.70530257e-13,3.4453"  fill="#D9D9D1" sketch:type="MSShapeGroup"></path>
                <path class="lower" d="M43.4751,279 L68.7431,122.343 C60.4981,121.032 52.0461,120.343 43.4331,120.343 C35.0351,120.343 26.7901,120.993 18.7431,122.24 L43.4751,279 Z" id="lower" fill="#D9D9D1" sketch:type="MSShapeGroup"></path>
                <path class="upper" d="M71.5303,105.0649 C62.3783,103.6089 52.9953,102.8429 43.4323,102.8429 C34.1073,102.8429 24.9513,103.5659 16.0153,104.9519 L2.7273,20.7329 C16.1403,18.6209 29.8863,17.5119 43.8933,17.5119 C57.9253,17.5119 71.6953,18.6249 85.1303,20.7449 L71.5303,105.0649 Z" id="upper" fill="#D9D9D1" sketch:type="MSShapeGroup"></path>
                <path class="double" d="M43.8936,17.5117 C57.9246,17.5117 71.6956,18.6247 85.1296,20.7447 L87.9166,3.4667 C73.5746,1.2017 58.8736,0.0117 43.8936,0.0117 C28.9586,0.0117 14.3016,1.1937 -0.0004,3.4457 L2.7276,20.7337 C16.1406,18.6207 29.8866,17.5117 43.8936,17.5117" id="double" fill="#00591E" sketch:type="MSShapeGroup"></path>
                <path class="triple" d="M43.4326,120.3428 C52.0456,120.3428 60.4976,121.0318 68.7436,122.3428 L71.5306,105.0648 C62.3776,103.6098 52.9956,102.8428 43.4326,102.8428 C34.1076,102.8428 24.9516,103.5668 16.0156,104.9518 L18.7426,122.2398 C26.7906,120.9928 35.0356,120.3428 43.4326,120.3428" id="triple" fill="#00591E" sketch:type="MSShapeGroup"></path>
                <text sketch:type="MSTextLayer" transform="translate(43.743100, 69.628469) rotate(3.000000) translate(-43.743100, -69.628469) " font-family="Monaco" font-size="48" font-weight="normal" fill="#FFFFFF">
                    <tspan x="29.2431" y="85.1284688">9</tspan>
                </text>
            </g>
            <g id="12" transform="translate(201.452358, 171.071110) rotate(-36.000000) translate(-201.452358, -171.071110) translate(157.452358, 31.071110)">
                <path  class="full" d="M-1.25055521e-12,3.4453 L43.475,279.0003 L87.917,3.4663 C73.574,1.2013 58.874,0.0113 43.894,0.0113 C28.959,0.0113 14.302,1.1933 -1.25055521e-12,3.4453" fill="#1E1E1E" sketch:type="MSShapeGroup"></path>
                <path class="lower" d="M43.4751,279 L68.7431,122.343 C60.4981,121.032 52.0461,120.343 43.4331,120.343 C35.0351,120.343 26.7901,120.993 18.7431,122.24 L43.4751,279 Z" id="lower" fill="#1E1E1E" sketch:type="MSShapeGroup"></path>
                <path class="upper" d="M71.5303,105.0649 C62.3783,103.6089 52.9953,102.8429 43.4323,102.8429 C34.1073,102.8429 24.9513,103.5659 16.0153,104.9519 L2.7273,20.7329 C16.1403,18.6209 29.8863,17.5119 43.8933,17.5119 C57.9253,17.5119 71.6953,18.6249 85.1303,20.7449 L71.5303,105.0649 Z" id="upper" fill="#1E1E1E" sketch:type="MSShapeGroup"></path>
                <path class="double" d="M43.8936,17.5117 C57.9246,17.5117 71.6956,18.6247 85.1296,20.7447 L87.9166,3.4667 C73.5746,1.2017 58.8736,0.0117 43.8936,0.0117 C28.9586,0.0117 14.3016,1.1937 -0.000400000002,3.4457 L2.7276,20.7337 C16.1406,18.6207 29.8866,17.5117 43.8936,17.5117" id="double" fill="#B01800" sketch:type="MSShapeGroup"></path>
                <path class="triple" d="M43.4326,120.3428 C52.0456,120.3428 60.4976,121.0318 68.7436,122.3428 L71.5306,105.0648 C62.3776,103.6098 52.9956,102.8428 43.4326,102.8428 C34.1076,102.8428 24.9516,103.5668 16.0156,104.9518 L18.7426,122.2398 C26.7906,120.9928 35.0356,120.3428 43.4326,120.3428" id="triple" fill="#B01800" sketch:type="MSShapeGroup"></path>
                <text sketch:type="MSTextLayer" font-family="Monaco" font-size="48" font-weight="normal" fill="#FFFFFF">
                    <tspan x="14" y="86">12</tspan>
                </text>
            </g>
            <g id="5" transform="translate(240.728273, 150.965359) rotate(-18.000000) translate(-240.728273, -150.965359) translate(196.728273, 10.965359)">
                <path  class="full" d="M-5.68434189e-14,3.4453 L43.475,279.0003 L87.917,3.4663 C73.574,1.2013 58.874,0.0113 43.894,0.0113 C28.959,0.0113 14.302,1.1933 -5.68434189e-14,3.4453"  fill="#D9D9D1" sketch:type="MSShapeGroup"></path>
                <path class="lower" d="M43.4751,279 L68.7431,122.343 C60.4981,121.032 52.0461,120.343 43.4331,120.343 C35.0351,120.343 26.7901,120.993 18.7431,122.24 L43.4751,279 Z" id="lower" fill="#D9D9D1" sketch:type="MSShapeGroup"></path>
                <path class="upper" d="M71.5303,105.0649 C62.3783,103.6089 52.9953,102.8429 43.4323,102.8429 C34.1073,102.8429 24.9513,103.5659 16.0153,104.9519 L2.7273,20.7329 C16.1403,18.6209 29.8863,17.5119 43.8933,17.5119 C57.9253,17.5119 71.6953,18.6249 85.1303,20.7449 L71.5303,105.0649 Z" id="upper" fill="#D9D9D1" sketch:type="MSShapeGroup"></path>
                <path class="double" d="M43.8936,17.5117 C57.9246,17.5117 71.6956,18.6247 85.1296,20.7447 L87.9166,3.4667 C73.5746,1.2017 58.8736,0.0117 43.8936,0.0117 C28.9586,0.0117 14.3016,1.1937 -0.000400000002,3.4457 L2.7276,20.7337 C16.1406,18.6207 29.8866,17.5117 43.8936,17.5117" id="double" fill="#00591E" sketch:type="MSShapeGroup"></path>
                <path class="triple" d="M43.4326,120.3428 C52.0456,120.3428 60.4976,121.0318 68.7436,122.3428 L71.5306,105.0648 C62.3776,103.6098 52.9956,102.8428 43.4326,102.8428 C34.1076,102.8428 24.9516,103.5668 16.0156,104.9518 L18.7426,122.2398 C26.7906,120.9928 35.0356,120.3428 43.4326,120.3428" id="triple" fill="#00591E" sketch:type="MSShapeGroup"></path>
                <text sketch:type="MSTextLayer" transform="translate(43.743100, 69.628469) rotate(3.000000) translate(-43.743100, -69.628469) " font-family="Monaco" font-size="48" font-weight="normal" fill="#FFFFFF">
                    <tspan x="29.2431" y="85.1284688">5</tspan>
                </text>
            </g>
            <g id="25" transform="translate(255.000000, 255.000000)" stroke="#D9D9D1" stroke-width="2" sketch:type="MSShapeGroup">
                <circle  class="full"  fill="#00591E" cx="27.5" cy="27.5" r="27.5"></circle>
                <circle id="single" fill="#00591E" cx="27.5" cy="27.5" r="27.5"></circle>
                <circle id="double" fill="#B01900" cx="28" cy="28" r="11"></circle>
            </g>
        </g>
</svg>
